<?xml version="1.0" encoding="UTF-8" standalone="no"?>
<svg
   version="1.1"
   x="0px"
   y="0px"
   viewBox="0 0 575.99371 508.55069"
   enable-background="new 0 0 24 24"
   xml:space="preserve"
   id="svg2"
   width="575.99371"
   height="508.55069"
   xmlns="http://www.w3.org/2000/svg"
   xmlns:svg="http://www.w3.org/2000/svg"><defs
     id="defs2" /><path
     d="m 568.2,332.85068 c 13.1,17.8 9.3,42.8 -8.5,55.9 l -126.6,93.3 c -23.4,17.2 -51.6,26.5 -80.7,26.5 H 192 32 c -17.7,0 -32,-14.3 -32,-32 v -64 c 0,-17.7 14.3,-32 32,-32 h 36.8 l 44.9,-36 c 22.7,-18.2 50.9,-28 80,-28 h 78.3 16 64 c 17.7,0 32,14.3 32,32 0,17.7 -14.3,32 -32,32 h -64 -16 c -8.8,0 -16,7.2 -16,16 0,8.8 7.2,16 16,16 h 120.6 l 119.7,-88.2 c 17.8,-13.1 42.8,-9.3 55.9,8.5 z"
     id="path20"
     style="display:inline;fill:#999999" /><path
     d="m 271.15891,245.43227 -1.44244,-1.32704 -101.08585,-93.87368 C 150.91751,133.78778 140.87816,110.70882 140.87816,86.533609 v -1.904015 c 0,-40.618979 28.84871,-75.4682088 68.77531,-83.0842688 22.73278,-4.385 45.98483,0.86546 64.5057,13.9050798 5.19277,3.69263 10.03935,7.96224 14.42435,12.86652 2.42329,-2.76948 5.01968,-5.30816 7.78915,-7.67375 2.13481,-1.84632 4.32731,-3.57724 6.63521,-5.19277 0,0 0,0 0,0 18.52086,-13.0396198 41.77292,-18.2900798 64.5057,-13.9627698 39.9266,7.61605 68.7753,42.5229798 68.7753,83.1419588 v 1.904015 c 0,24.175211 -10.03935,47.254171 -27.75245,63.697941 l -101.08585,93.87368 -1.44244,1.32704 c -4.73119,4.385 -10.96251,6.86599 -17.42462,6.86599 -6.46211,0 -12.69343,-2.42329 -17.42461,-6.86599 z m 7.67375,-186.478025 c -0.23079,-0.17309 -0.40388,-0.40388 -0.57697,-0.63467 l -10.27014,-11.53948 -0.0577,-0.0577 c 0,0 0,0 0,0 -13.3281,-14.94363 -33.46449,-21.75192 -53.08161,-18.00159 -26.88699,5.13507 -46.27332,28.56022 -46.27332,55.908789 v 1.904015 c 0,16.443761 6.86599,32.195151 18.92475,43.388451 l 101.08585,93.87368 101.08586,-93.87368 c 12.05876,-11.1933 18.92475,-26.94469 18.92475,-43.388451 v -1.904015 c 0,-27.290869 -19.38633,-50.773719 -46.21562,-55.908789 -19.61712,-3.75033 -39.81121,3.11566 -53.08162,18.00159 0,0 0,0 -0.0577,0.0577 -0.0577,0.0577 0,0 -0.0577,0.0577 l -10.27014,11.53948 c -0.17309,0.23079 -0.40388,0.40388 -0.57697,0.63467 -2.59639,2.59638 -6.11593,4.03882 -9.75087,4.03882 -3.63493,0 -7.15447,-1.44244 -9.75086,-4.03882 z"
     id="path1-3"
     style="display:inline;fill:#ff2a2a;stroke-width:1" /></svg>
