<?xml version="1.0" encoding="UTF-8" standalone="no"?>
<svg
   version="1.1"
   width="512.20148"
   height="486.78082"
   id="svg12892"
   sodipodi:docname="logo.svg"
   inkscape:version="1.2.2 (b0a8486541, 2022-12-01)"
   inkscape:export-filename="logo.png"
   inkscape:export-xdpi="300"
   inkscape:export-ydpi="300"
   xmlns:inkscape="http://www.inkscape.org/namespaces/inkscape"
   xmlns:sodipodi="http://sodipodi.sourceforge.net/DTD/sodipodi-0.dtd"
   xmlns="http://www.w3.org/2000/svg"
   xmlns:svg="http://www.w3.org/2000/svg">
  <defs
     id="defs12896">
    <inkscape:path-effect
       effect="bspline"
       id="path-effect13397"
       is_visible="true"
       lpeversion="1"
       weight="33.333333"
       steps="2"
       helper_size="0"
       apply_no_weight="true"
       apply_with_weight="true"
       only_selected="false" />
    <inkscape:path-effect
       effect="fill_between_many"
       method="originald"
       linkedpaths="#path13502,0,1"
       id="path-effect13704"
       is_visible="true"
       lpeversion="0"
       join="true"
       close="true"
       autoreverse="true" />
  </defs>
  <sodipodi:namedview
     id="namedview12894"
     pagecolor="#ffffff"
     bordercolor="#666666"
     borderopacity="1.0"
     inkscape:showpageshadow="2"
     inkscape:pageopacity="0.0"
     inkscape:pagecheckerboard="true"
     inkscape:deskcolor="#d1d1d1"
     showgrid="false"
     inkscape:zoom="2.9085291"
     inkscape:cx="279.69464"
     inkscape:cy="193.22482"
     inkscape:window-width="3200"
     inkscape:window-height="1731"
     inkscape:window-x="0"
     inkscape:window-y="0"
     inkscape:window-maximized="1"
     inkscape:current-layer="svg12892" />
  <path
     id="path13781"
     style="fill:#ffffff;stroke:none;stroke-width:0.468718;stroke-linecap:round;paint-order:markers stroke fill"
     d="m 233.57641,2.4628192 c -26.39893,0.1637139 -52.77128,1.7285891 -79.08336,3.8387239 -3.84678,0.7187927 -7.70296,0.8987574 -11.54699,1.1958128 -8.16961,0.6068472 -16.4333,1.0218581 -24.38616,3.2014101 -3.10323,0.885791 -6.2021,2.116578 -8.76089,4.152401 -0.6555,-0.281149 -1.33339,-0.648985 -2.01342,-0.779247 -16.277118,4.720029 -33.013371,8.384011 -48.578042,15.457061 -10.307083,4.677703 -20.082405,11.062706 -27.55566,19.855339 -1.906203,2.242574 -3.70567,4.612593 -5.244335,7.129817 -9.42477,38.53648 -15.299191,78.189173 -14.944652,118.004163 0.104343,9.22982 0.474908,18.46333 1.315286,27.65354 1.88582,15.55192 2.926726,31.31963 7.015817,46.48085 2.77504,10.2931 7.153317,20.32583 14.065208,28.38632 3.478176,4.06074 7.518122,7.63648 12.008163,10.4514 23.637223,12.90942 49.335856,21.45231 75.514585,26.83274 35.48378,7.31268 71.76505,9.09915 107.86681,9.52708 4.25892,0.0276 8.52593,0.10653 12.78011,0.0694 4.22881,-1.10445 8.6323,-2.0949 13.00852,-1.46802 2.18126,0.31293 4.48432,1.47861 5.30107,3.72596 1.10282,2.9139 0.58823,6.14562 -0.0506,9.1089 -1.63876,6.80033 -4.69785,13.1212 -7.88529,19.26969 -1.77649,3.40973 -3.73047,6.72492 -5.63046,10.05532 -2.16219,7.96436 -5.52182,15.51164 -9.15357,22.8617 -6.7065,13.53514 -14.67044,26.79733 -18.83828,41.56445 -1.80584,6.3497 -2.77798,12.95472 -2.77201,19.57586 16.03649,10.67141 33.74248,18.50608 52.03932,23.99391 7.54156,2.28622 15.20485,4.1189 22.90815,5.72044 23.84443,5.69299 48.74433,6.16393 72.88277,2.21208 31.39858,-5.12509 61.52465,-17.44815 88.42794,-34.82005 4.8324,-3.09258 9.5032,-6.44099 14.16755,-9.79357 1.76642,-1.2295 3.74828,-2.52607 5.62231,-3.74543 7.45912,-4.88318 15.14865,-9.6455 21.34409,-16.23381 4.02258,-4.29302 7.27133,-9.64462 8.05847,-15.65328 0.7783,-5.62123 -0.63504,-11.33849 -3.0673,-16.35714 -0.70792,-4.17064 -2.58555,-8.00573 -4.476,-11.72152 -1.95109,-3.7225 -4.15451,-7.30195 -6.48668,-10.7791 -1.19023,-4.68346 -3.52479,-8.93892 -5.71699,-13.18315 -2.34546,-4.48444 -4.97731,-8.82549 -6.95278,-13.50493 -0.37255,-0.95207 -0.75611,-1.9617 -0.62771,-2.99712 -0.91219,-7.31973 -4.26751,-13.98149 -7.69247,-20.34928 -2.48496,-4.56578 -5.18901,-9.17218 -7.43892,-13.77018 -2.39063,-4.98244 -4.56413,-10.35861 -4.40159,-16.02294 0.0892,-4.49772 2.13546,-8.74537 5.0835,-11.98366 1.18738,-1.36474 2.54243,-2.55599 3.9107,-3.72073 9.06956,-30.15369 15.71945,-61.26551 17.3552,-92.86052 0.67345,-13.33969 0.47807,-26.74269 -0.87528,-40.03108 -2.57442,-18.29463 -4.81719,-36.765448 -10.19325,-54.465657 -3.83166,-12.574537 -9.39342,-24.776094 -17.69614,-34.888846 -2.83831,-3.456173 -5.95753,-6.685054 -9.3676,-9.535902 C 424.25028,24.014379 404.19632,17.018022 383.70893,12.442831 352.06541,5.3562676 319.58749,3.7377257 287.30548,3.0946406 c -14.71574,-0.273958 -29.43374,-0.394279 -44.1501,-0.616053 -3.19303,-0.032064 -6.3859,-0.023199 -9.57899,-0.015767 z" />
  <path
     style="fill:#94a3b8;stroke:#94a3b8;stroke-width:0.264091;stroke-linecap:round;paint-order:markers stroke fill;fill-opacity:1;stroke-opacity:1;opacity:0.5"
     d="M 220.69086,115.93076 C 170.37625,112.07987 118.45033,112.50842 70.609653,94.38491 57.455041,88.546246 42.680282,83.748238 32.598982,73.208725 25.136671,60.041563 39.398165,47.089261 50.184633,41.51455 62.431421,33.565306 76.443588,28.855359 90.21019,23.292353 c 14.56227,-9.067492 32.71071,-7.2227 49.16456,-9.034188 53.1328,-1.069122 106.318,-4.22682 159.45697,-1.911501 50.01077,4.598131 103.73299,4.992952 147.36381,33.310334 9.36358,5.066658 13.28212,9.248994 0.86166,7.572262 -66.95678,0.288626 -133.91375,0.531727 -200.87074,0.768816 -9.85302,7.713884 7.86402,22.559317 17.95702,22.864526 12.68135,7.783637 27.65893,11.339431 40.50539,19.380972 3.8134,3.195308 17.95113,12.258366 9.90134,15.467196 -11.02865,6.22658 -24.67629,2.96856 -36.84124,4.06597 -19.00531,0.19353 -38.0135,0.72116 -57.0181,0.15402 z"
     id="path13694"
     sodipodi:nodetypes="cscsscscscsssssssscsscsssssscsscc" />
  <path
     id="path13696"
     style="fill:#d4aa00;stroke:none;stroke-width:1px;stroke-linecap:butt;stroke-linejoin:miter;stroke-opacity:1"
     d="m 386.82891,165.87718 c -6.55081,-0.1837 -19.39936,7.26067 -26.45313,12.75782 -7.05377,5.49714 -14.34703,15.05504 -12.6875,22.35156 1.65953,7.29652 6.94109,19.66801 10.97266,30.89062 4.03156,11.22261 7.14341,22.21455 11.38672,34.49805 4.24329,12.2835 9.682,26.06971 14.76367,38.67187 5.08166,12.60217 9.85234,24.13713 15.53906,37.31446 5.68672,13.17732 12.43584,28.32891 17.97461,41.42187 5.53877,13.09298 9.99327,24.41172 15.4375,33.38086 5.44422,8.96914 12.75063,16.46475 20.38281,18.12305 7.63219,1.6583 19.38834,-2.15544 27.58985,-7.96484 8.2015,-5.80941 15.98436,-15.23531 14.63476,-25.56446 -1.3496,-10.32916 -7.19382,-34.70211 -13.73437,-41.93945 -8.29776,-9.18176 -5.62463,-16.03781 -8.63672,-23.98242 -3.45227,-9.10556 -6.82818,-17.72802 -10.81055,-27.14063 -3.98237,-9.41261 -7.26052,-19.95402 -11.74219,-29.94531 -4.48166,-9.9913 -10.21121,-19.74429 -16.0625,-30.4082 -5.85128,-10.66391 -11.24748,-21.23693 -16.42773,-32.28711 -5.18027,-11.05018 -10.15607,-22.62944 -15.07031,-32.08008 -4.91425,-9.45064 -10.50584,-17.91396 -17.05664,-18.09766 z m 15.72656,73.8711 c 1.84857,0.0178 3.81586,0.44742 5.86914,1.12109 2.4622,3.69331 2.67271,6.71365 2,11 -1.5,2.5 -1.5,2.5 -4,4 -4.02098,0.79101 -6.96411,0.62154 -10.5,-1.5 -2.11951,-3.53252 -2.41913,-6.48702 -1.5,-10.5 2.29562,-3.03614 5.04991,-4.1507 8.13086,-4.12109 z m 31.33594,102.7832 c 1.36504,-0.0124 2.86445,0.15247 4.5332,0.33789 2.49518,1.52931 2.87047,2.62139 3.8125,5.375 0.22765,3.18716 -0.27052,4.83475 -1.8125,7.625 -1.6875,1.875 -1.6875,1.875 -4,3 -3.71637,-0.0652 -6.04746,-0.2011 -8.9375,-2.625 -1.4995,-3.35182 -1.51628,-5.7448 -1.0625,-9.375 2.10692,-3.42375 4.46369,-4.31057 7.4668,-4.33789 z" />
  <path
     d="m 243.97132,0.00166161 c 66.54682,1.14655499 136.31144,-1.22661101 198.2016,27.26165639 27.02661,9.244473 37.68289,47.789573 42.99304,73.300302 11.83556,56.85975 5.29185,107.35135 -12.4158,165.2732 -7.79424,13.72049 -17.14607,13.12135 -6.04769,31.0659 5.76887,14.18434 32.29849,49.33716 4.85638,49.53637 -13.93087,-21.63546 -21.52017,-47.35147 -33.01892,-70.56932 -16.67768,-36.06016 -30.91791,-73.51165 -49.13111,-108.68061 -20.84275,14.625 -53.8835,27.36616 -29.3326,55.03009 31.22766,70.27153 62.13266,140.68607 93.3326,210.96991 11.30248,-13.25357 49.06902,-20.41003 37.06566,-39.48884 -12.10439,-11.79126 -1.72275,-38.91864 11.55458,-17.50846 16.49667,21.04068 13.48202,43.81071 -13.10908,53.35811 -48.85395,38.38381 -111.04468,63.66211 -173.98329,55.79494 -34.71468,-4.15481 -69.74311,-13.98552 -99.33843,-32.87325 -1.59969,-25.28595 20.26097,-48.91221 27.90535,-73.49605 5.73533,-17.29035 24.48109,-43.14248 21.19379,-54.75475 C 191.71091,324.51869 115.75866,324.09655 47.929941,293.69658 22.898618,284.57933 7.9632309,260.95729 6.0875539,235.03284 -5.7051035,175.00757 0.7969677,112.70927 15.647411,53.90459 28.534462,29.270207 58.839061,22.364154 83.78046,16.139184 112.69975,19.74988 79.36403,39.972158 65.554875,39.215159 44.735932,41.004919 14.675573,66.533501 47.565867,78.188693 98.082085,103.71937 156.40673,102.73127 211.56537,106.86249 c 32.61759,1.25929 65.24221,-0.0971 97.84345,-0.6737 C 295.99434,96.941912 276.33107,89.207442 261.00288,79.694294 244.15109,77.390771 224.43585,51.676916 253.52157,53.769936 320.15061,53.589526 386.77965,53.350824 453.40882,53.188776 407.21389,21.08272 348.38877,22.207754 294.56167,17.474671 238.28928,15.827887 181.79663,17.097513 125.94351,24.366938 103.58599,4.0440936 151.17233,4.1524356 164.98801,2.8104106 191.25145,0.57424962 217.62284,-0.03653039 243.97132,0.00166161 Z m 35.4375,70.18750439 c 21.29132,13.461492 45.1813,22.802166 66,36.999994 0.82887,23.31214 0.60715,46.66992 1,70 18.1029,-6.36216 37.61116,-40.52837 55.40937,-24.88211 17.09949,37.04069 32.47854,74.91484 49.63681,111.94581 20.4786,-6.0413 17.0748,-44.26726 22.60948,-63.72696 4.62356,-43.40454 6.65856,-89.62744 -11.65566,-130.336734 z M 25.408819,83.189165 C 15.478824,137.90296 8.6436094,195.94455 26.456671,249.75852 c 16.717753,29.48952 52.300348,38.33309 82.677029,46.89234 53.99627,12.70808 109.86505,11.64944 164.95211,11.72443 14.95659,-14.91416 18.48625,-40.20744 29.69344,-58.9342 8.46303,-20.79263 20.64326,-40.36209 26.74203,-61.90985 0.90052,-22.41761 -0.14632,-44.89986 -0.11244,-67.34237 C 245.04346,123.74856 157.0281,129.20055 74.090289,104.33052 57.202785,98.964692 40.781538,92.024642 25.408819,83.189165 Z M 337.40882,213.18916 c -35.67054,76.01956 -70.17446,152.58869 -105,229 25.49141,17.96726 57.89532,23.84461 88.39395,27.936 40.77464,3.73017 84.04018,-2.90997 118.60605,-25.936 -24.70749,-60.94846 -52.97307,-120.49034 -78.97083,-180.93303 -7.86764,-16.39697 -14.43268,-35.09935 -23.02917,-50.06697 z"
     fill="#000000"
     id="path12876"
     sodipodi:nodetypes="scsccccccccccccccccccccccccssccscccccccccccccccccssssss" />
  <path
     d="m 410.29427,241.38348 c 2.4622,3.69331 2.67271,6.71365 2,11 -1.5,2.5 -1.5,2.5 -4,4 -4.02098,0.79101 -6.96411,0.62154 -10.5,-1.5 -2.11951,-3.53252 -2.41913,-6.48702 -1.5,-10.5 3.673,-4.85783 8.52458,-4.79645 14,-3 z"
     fill="#000000"
     id="path12878" />
  <path
     d="m 358.29427,431.38348 c 2.49518,1.52931 2.87047,2.62139 3.8125,5.375 0.22765,3.18716 -0.27052,4.83475 -1.8125,7.625 -1.6875,1.875 -1.6875,1.875 -4,3 -3.71637,-0.0652 -6.04746,-0.2011 -8.9375,-2.625 -1.4995,-3.35182 -1.51628,-5.7448 -1.0625,-9.375 3.06462,-4.98001 6.65999,-4.59333 12,-4 z"
     fill="#000000"
     id="path12880" />
  <path
     d="m 440.29427,343.38348 c 2.49518,1.52931 2.87047,2.62139 3.8125,5.375 0.22765,3.18716 -0.27052,4.83475 -1.8125,7.625 -1.6875,1.875 -1.6875,1.875 -4,3 -3.71637,-0.0652 -6.04746,-0.2011 -8.9375,-2.625 -1.4995,-3.35182 -1.51628,-5.7448 -1.0625,-9.375 3.06462,-4.98001 6.65999,-4.59333 12,-4 z"
     fill="#000000"
     id="path12882" />
  <path
     d="m 305.29427,375.38348 c 2.81973,2.36494 2.97851,3.82807 3.4375,7.5 -0.4375,3.5 -0.4375,3.5 -2,5.9375 -3.37968,2.16646 -5.49734,2.12538 -9.4375,1.5625 -2.4375,-1.5 -2.4375,-1.5 -4,-4 -0.61015,-2.80897 -0.65361,-5.19636 0,-8 3.61475,-4.49105 6.62358,-4.59301 12,-3 z"
     fill="#000000"
     id="path12884" />
  <path
     d="m 343.29427,280.38348 c 2.4375,1.5625 2.4375,1.5625 4,4 0.72468,4.42863 0.49454,6.28067 -2.0625,10 -2.9375,2 -2.9375,2 -6.5625,2 -4.99269,-1.47931 -4.99269,-1.47931 -6.375,-4 -0.75472,-6.79245 -0.75472,-6.79245 1.5625,-10.5 3.38638,-2.08393 5.53135,-2.05802 9.4375,-1.5 z"
     fill="#000000"
     id="path12886" />
  <path
     d="m 389.79427,107.82098 c 3.5,0.5625 3.5,0.5625 5.9375,2.0625 2.19809,3.51695 2.37408,6.45867 1.5625,10.5 -1.625,2.5 -1.625,2.5 -4,4 -2.9375,0.5625 -2.9375,0.5625 -6,0 -3.32879,-2.46041 -4.79302,-3.8961 -5.5625,-8 0.98207,-5.23772 2.69719,-7.70022 8.0625,-8.5625 z"
     fill="#000000"
     id="path12888" />
  <path
     d="m 446.29427,94.38348 c 2.75806,2.39032 2.98156,3.852469 3.4375,7.5 -0.4375,3.5 -0.4375,3.5 -1.9375,5.9375 -3.77829,2.36143 -6.07791,2.12404 -10.5,1.5625 -2,-1.5 -2,-1.5 -3,-4 -0.50396,-3.57813 -0.79396,-6.827962 1.3125,-9.9375 3.78323,-2.382038 6.48729,-2.200056 10.6875,-1.0625 z"
     fill="#000000"
     id="path12890" />
  <path
     style="fill:#ffd42a;stroke:none;stroke-width:0.687633;stroke-linecap:round;paint-order:markers stroke fill"
     d="m 325.76165,470.96206 c -10.87534,-0.92979 -33.07727,-4.76811 -45.03995,-7.78663 -16.35847,-4.1277 -32.45489,-10.625 -42.63321,-17.20884 -2.45829,-1.59014 -4.58154,-2.98609 -4.71006,-3.10212 -0.46754,-0.4221 86.17378,-189.99284 102.2399,-223.70294 l 2.08522,-4.37523 3.23652,6.43813 c 1.78009,3.54098 6.5546,14.01929 10.61001,23.28514 17.97799,41.07632 23.03758,52.53245 42.82062,96.95622 20.20785,45.3777 30.12768,68.16929 40.04055,91.9963 5.39059,12.95709 5.88639,11.01456 -4.25301,16.66299 -20.42976,11.38095 -43.77267,18.21246 -70.35876,20.59111 -7.28959,0.6522 -27.5715,0.7987 -34.03783,0.24587 z m 31.06149,-24.77281 c 3.5754,-2.3427 4.78147,-9.02051 2.3495,-13.00881 -2.26839,-3.72002 -10.08859,-4.79068 -13.89773,-1.2471 -1.61047,1.4982 -2.28391,3.6918 -1.97043,6.63945 0.41252,3.87894 1.53145,5.93036 3.35845,7.06937 3.11208,1.94019 7.66029,2.18509 10.16021,0.54709 z M 303.5265,389.51742 c 4.97449,-1.96303 4.33562,-15.00633 -0.82425,-16.44465 -5.75871,-1.60524 -11.66484,1.94398 -12.37286,6.29986 -1.4736,9.06573 4.67891,13.50625 13.19711,10.14479 z m 38.61052,-94.1899 c 2.20418,-1.0043 3.9098,-4.75805 3.9098,-8.60476 0,-2.5359 -0.37834,-3.50225 -2.01,-5.13391 -1.69882,-1.69882 -2.85307,-2.72769 -5.83251,-2.72769 -6.78278,0 -10.64874,4.26451 -9.69257,11.21675 0.44271,3.21885 2.93411,4.69869 5.15769,5.51629 1.81663,0.66796 6.75781,0.51234 8.46759,-0.26668 z"
     id="path13188"
     sodipodi:nodetypes="ssssscssssssssssssssssssssssss" />
  <path
     style="fill:#94a3b8;stroke:none;stroke-width:0.48623;stroke-linecap:round;paint-order:markers stroke fill;fill-opacity:1;opacity:0.5"
     d="m 211.08092,308.80023 c -45.08934,-1.24044 -80.32234,-5.75712 -109.40171,-14.02468 -34.142413,-9.70704 -50.906006,-18.0779 -63.93147,-31.92406 -5.974323,-6.35074 -8.727855,-10.94946 -10.915904,-18.23084 -9.081642,-30.22186 -11.409072,-67.43819 -6.821353,-109.07556 1.397661,-12.68495 6.925458,-49.743895 7.528445,-50.471504 0.06687,-0.08069 3.483482,1.603276 7.592472,3.742147 12.757827,6.640891 28.501407,13.055717 42.484722,17.310677 8.621366,2.62339 27.905538,7.27102 38.163758,9.19777 49.85065,9.36318 98.87139,11.15313 194.73504,7.11059 11.76676,-0.49621 21.45968,-0.83823 21.53982,-0.76005 0.0801,0.0782 0.18953,15.10108 0.24311,33.38422 l 0.0974,33.24208 -1.13804,3.64672 c -2.11184,6.76712 -6.48546,17.19688 -12.33571,29.41691 -3.20071,6.68566 -7.45554,15.766 -9.45519,20.17854 -1.99964,4.41253 -4.92524,10.55151 -6.50133,13.64217 -1.5761,3.09067 -4.74353,10.42059 -7.03875,16.2887 -8.56757,21.90447 -11.70474,28.1621 -17.59808,35.10236 l -2.16764,2.55271 -30.2302,-0.10091 c -16.62662,-0.0555 -32.30885,-0.1581 -34.8494,-0.22799 z"
     id="path13482" />
  <path
     inkscape:original-d=""
     inkscape:path-effect="#path-effect13704"
     d=""
     id="path13706"
     class="UnoptimicedTransforms"
     transform="translate(2.0021,1.102538)" />
  <path
     style="fill:#94a3b8;stroke:#94a3b8;stroke-width:0.48623;stroke-linecap:round;paint-order:markers stroke fill;fill-opacity:1;stroke-opacity:1;opacity:0.5"
     d="m 445.95027,252.06725 c -2.91438,-6.47926 -11.36467,-25.67449 -18.77843,-42.65606 -20.78211,-47.60248 -24.82237,-56.48078 -26.37442,-57.95673 -2.25026,-2.13992 -6.37582,-3.44279 -10.0839,-3.18454 -6.39276,0.44523 -11.56991,3.4598 -23.59531,13.73918 -4.27158,3.65137 -9.29813,7.80963 -11.17012,9.24058 -3.20987,2.45364 -8.93806,5.80338 -9.30187,5.43957 -0.0915,-0.0915 -0.37251,-15.76 -0.62447,-34.8189 -0.43174,-32.65797 -0.50908,-34.69005 -1.34375,-35.30459 -4.93063,-3.63021 -17.37215,-10.637354 -37.10977,-20.900437 -13.01822,-6.769157 -25.92246,-13.889506 -26.96145,-14.876895 -0.27488,-0.26123 36.36604,-0.438976 90.49143,-0.438976 h 90.95333 l 2.68895,6.928775 c 5.80009,14.945454 9.26184,30.377823 11.1524,49.717003 0.79559,8.13832 0.7934,38.36066 -0.003,48.37987 -1.37751,17.31894 -2.12154,24.29426 -3.00813,28.20133 -0.51582,2.27312 -1.71594,10.14029 -2.66695,17.4826 -2.48318,19.17156 -3.86996,25.22818 -7.38954,32.27296 -0.91245,1.82634 -2.57294,4.31214 -3.68999,5.524 -1.88365,2.04352 -6.27816,5.0117 -7.39941,4.99778 -0.26743,-0.003 -2.87072,-5.30726 -5.7851,-11.78652 z m -52.4985,-130.35657 2.12405,-2.12405 -0.0107,-3.58915 c -0.015,-5.05395 -1.10676,-7.32565 -4.06311,-8.45469 -2.74289,-1.04751 -6.61784,-0.78641 -8.48285,0.57161 -1.75103,1.27502 -3.48893,4.80697 -3.48893,7.0906 0,2.44462 1.47735,5.25616 3.74339,7.12402 1.62147,1.33655 2.17653,1.50572 4.94039,1.50572 3.0281,0 3.17208,-0.0584 5.23775,-2.12406 z m 50.70504,-13.9001 c 3.2649,-1.66563 4.46744,-7.20531 2.50321,-11.531485 -1.33106,-2.931638 -2.87598,-3.763907 -7.02972,-3.78699 -6.04343,-0.03358 -7.98861,1.993271 -8.04603,8.383885 -0.0313,3.48766 0.82089,5.94428 2.46053,7.09273 1.68186,1.17802 7.67668,1.08427 10.11201,-0.15814 z"
     id="path14184" />
</svg>
